<svg id="Layer_1" data-name="Layer 1" xmlns="http://www.w3.org/2000/svg" xmlns:xlink="http://www.w3.org/1999/xlink" viewBox="0 0 122.79 120.23"><defs><style>.cls-1,.cls-3{fill:none;}.cls-2{clip-path:url(#clip-path);}.cls-3{stroke:#231f20;}</style><clipPath id="clip-path"><rect class="cls-1" x="1.2" y="1.7" width="120" height="117.09"/></clipPath></defs><g class="cls-2"><path class="cls-3" d="M61.42,74.05A13.44,13.44,0,1,0,47.64,60.62,13.61,13.61,0,0,0,61.42,74.05Z"/><path class="cls-3" d="M61.42,89.65c16.44,0,29.76-13,29.76-29s-13.32-29-29.76-29-29.77,13-29.77,29S45,89.65,61.42,89.65Z"/><path class="cls-3" d="M61.42,104.31c24.74,0,44.79-19.56,44.79-43.69s-20-43.7-44.79-43.7-44.8,19.57-44.8,43.7S36.68,104.31,61.42,104.31Z"/><path class="cls-3" d="M61.2,118.29c32.86,0,59.5-26,59.5-58s-26.64-58-59.5-58-59.5,26-59.5,58S28.34,118.29,61.2,118.29Z"/></g></svg>